

<svg id="Capa_1" data-name="Capa 1" xmlns="http://www.w3.org/2000/svg" viewBox="0 0 544.38 319.88"><defs><style>.cls-1{fill:#9b9a9a;}.cls-2{fill:#706f6e;}.cls-3{fill:#3c3c3b;}.cls-4{fill:#1d1e1c;}.cls-5{font-size:58.45px;font-family:Kiona-Regular, Kiona;}.cls-6{letter-spacing:-0.01em;}.cls-7{letter-spacing:0em;}.cls-8{letter-spacing:0em;}.cls-9{letter-spacing:0em;}</style></defs><title>Tweek</title><path class="cls-1" d="M270,78.56V34.23h62.84a84.77,84.77,0,0,1,0,169.54H270V136.45l44.31.1v22.91h18.76a40.13,40.13,0,1,0,0-80.25Z"/><path class="cls-2" d="M255.76,78.56V34.23H318.6a84.77,84.77,0,0,1,0,169.54H255.76V136.45l44.31.1v22.91h18.76a40.13,40.13,0,1,0,0-80.25Z"/><path class="cls-3" d="M239.26,78.56V34.23H302.1a84.77,84.77,0,0,1,0,169.54H239.26V136.45l44.31.1v22.91h18.76a40.13,40.13,0,1,0,0-80.25Z"/><path d="M217.12,78.56V34.23H280a84.77,84.77,0,0,1,0,169.54H217.12V136.45l44.31.1v22.91h18.76a40.13,40.13,0,1,0,0-80.25Z"/><rect x="161.58" y="34.23" width="44.4" height="44.4"/><rect class="cls-4" x="106.2" y="34.23" width="44.4" height="44.4"/><rect class="cls-4" x="161.58" y="96.8" width="44.4" height="44.4"/><rect class="cls-3" x="161.58" y="159.38" width="44.4" height="44.4"/><text class="cls-5" transform="translate(106.2 283.46)">tw<tspan class="cls-6" x="90.71" y="0">ee</tspan><tspan class="cls-7" x="159.91" y="0">k</tspan><tspan class="cls-8" x="197.85" y="0">d</tspan><tspan class="cls-9" x="236.01" y="0">ev</tspan></text></svg>