<svg id="Capa_1" data-name="Capa 1" xmlns="http://www.w3.org/2000/svg" xmlns:xlink="http://www.w3.org/1999/xlink" viewBox="0 0 395.51 396"><defs><style>.cls-1{opacity:0.3;}.cls-2{fill:url(#Degradado_sin_nombre_22);}.cls-3{opacity:0.6;}.cls-4{fill:url(#Degradado_sin_nombre_22-2);}.cls-5{fill:url(#Degradado_sin_nombre_22-3);}.cls-6{font-size:58.77px;font-family:Kiona-Regular, Kiona;}.cls-7{letter-spacing:-0.01em;}.cls-8{letter-spacing:0em;}.cls-9{fill:#1d1e1c;}.cls-10{fill:#3c3c3b;}</style><linearGradient id="Degradado_sin_nombre_22" x1="205.92" y1="161.73" x2="355" y2="161.73" gradientUnits="userSpaceOnUse"><stop offset="0" stop-color="#149bd7"/><stop offset="0.11" stop-color="#2189ca"/><stop offset="0.39" stop-color="#3e5eaa"/><stop offset="0.64" stop-color="#533f93"/><stop offset="0.85" stop-color="#602c85"/><stop offset="1" stop-color="#652580"/></linearGradient><linearGradient id="Degradado_sin_nombre_22-2" x1="191.54" y1="161.73" x2="340.63" y2="161.73" xlink:href="#Degradado_sin_nombre_22"/><linearGradient id="Degradado_sin_nombre_22-3" x1="174.88" y1="161.73" x2="323.96" y2="161.73" xlink:href="#Degradado_sin_nombre_22"/></defs><title>Tweek</title><g class="cls-1"><path class="cls-2" d="M205.92,120.89V76.12h63.47a85.61,85.61,0,1,1,0,171.23H205.92v-68l44.75.11V202.6h18.94a40.52,40.52,0,1,0,0-81Z"/></g><g class="cls-3"><path class="cls-4" d="M191.54,120.89V76.12H255a85.61,85.61,0,1,1,0,171.23H191.54v-68l44.75.11V202.6h18.94a40.52,40.52,0,1,0,0-81Z"/></g><path class="cls-5" d="M174.88,120.89V76.12h63.47a85.61,85.61,0,1,1,0,171.23H174.88v-68l44.75.11V202.6h18.94a40.52,40.52,0,1,0,0-81Z"/><path d="M152.52,120.89V76.12H216a85.61,85.61,0,1,1,0,171.23H152.52v-68l44.75.11V202.6h18.94a40.52,40.52,0,1,0,0-81Z"/><text class="cls-6" transform="translate(41.9 319.49)">tw<tspan class="cls-7" x="91.21" y="0">ee</tspan><tspan x="160.79" y="0">k</tspan><tspan class="cls-8" x="198.93" y="0">d</tspan><tspan x="237.3" y="0">ev</tspan></text><rect x="96.43" y="76.12" width="44.84" height="44.84"/><rect class="cls-9" x="40.5" y="76.12" width="44.84" height="44.84"/><rect class="cls-9" x="96.43" y="139.32" width="44.84" height="44.84"/><rect class="cls-10" x="96.43" y="202.51" width="44.84" height="44.84"/></svg>