<svg id="Capa_1" data-name="Capa 1" xmlns="http://www.w3.org/2000/svg" xmlns:xlink="http://www.w3.org/1999/xlink" viewBox="0 0 544.38 319.88"><defs><style>.cls-1{opacity:0.3;}.cls-2{fill:url(#Degradado_sin_nombre_22);}.cls-3{opacity:0.6;}.cls-4{fill:url(#Degradado_sin_nombre_22-2);}.cls-5{fill:url(#Degradado_sin_nombre_22-3);}.cls-6,.cls-7{fill:#fff;}.cls-7{font-size:32.69px;font-family:Kiona-Regular, Kiona;}.cls-8{letter-spacing:-0.01em;}.cls-9{letter-spacing:0.01em;}.cls-10{fill:#9b9a9a;}.cls-11{fill:#706f6e;}</style><linearGradient id="Degradado_sin_nombre_22" x1="186.39" y1="157.96" x2="326.63" y2="157.96" gradientUnits="userSpaceOnUse"><stop offset="0" stop-color="#149bd7"/><stop offset="0.11" stop-color="#2189ca"/><stop offset="0.39" stop-color="#3e5eaa"/><stop offset="0.64" stop-color="#533f93"/><stop offset="0.85" stop-color="#602c85"/><stop offset="1" stop-color="#652580"/></linearGradient><linearGradient id="Degradado_sin_nombre_22-2" x1="172.87" y1="157.96" x2="313.1" y2="157.96" xlink:href="#Degradado_sin_nombre_22"/><linearGradient id="Degradado_sin_nombre_22-3" x1="157.19" y1="157.96" x2="297.43" y2="157.96" xlink:href="#Degradado_sin_nombre_22"/></defs><title>Tweek</title><g class="cls-1"><path class="cls-2" d="M186.39,119.54V77.43h59.7a80.53,80.53,0,1,1,0,161.07h-59.7v-64l42.09.1v21.77h17.82a38.12,38.12,0,1,0,0-76.24Z"/></g><g class="cls-3"><path class="cls-4" d="M172.87,119.54V77.43h59.7a80.53,80.53,0,1,1,0,161.07h-59.7v-64l42.09.1v21.77h17.82a38.12,38.12,0,1,0,0-76.24Z"/></g><path class="cls-5" d="M157.19,119.54V77.43h59.7a80.53,80.53,0,1,1,0,161.07h-59.7v-64l42.09.1v21.77H217.1a38.12,38.12,0,1,0,0-76.24Z"/><path class="cls-6" d="M136.16,119.54V77.43h59.7a80.53,80.53,0,1,1,0,161.07h-59.7v-64l42.09.1v21.77h17.82a38.12,38.12,0,1,0,0-76.24Z"/><text class="cls-7" transform="translate(341.6 173.94)">tw<tspan class="cls-8" x="50.74" y="0">ee</tspan><tspan x="89.44" y="0">k</tspan><tspan class="cls-9" x="110.66" y="0">d</tspan><tspan x="132.01" y="0">ev</tspan></text><rect class="cls-6" x="83.4" y="77.43" width="42.18" height="42.18"/><rect class="cls-10" x="30.79" y="77.43" width="42.18" height="42.18"/><rect class="cls-10" x="83.4" y="136.87" width="42.18" height="42.18"/><rect class="cls-11" x="83.4" y="196.32" width="42.18" height="42.18"/></svg>