<svg id="Capa_1" data-name="Capa 1" xmlns="http://www.w3.org/2000/svg" xmlns:xlink="http://www.w3.org/1999/xlink" viewBox="0 0 544.38 319.88"><defs><style>.cls-1{opacity:0.3;}.cls-2{fill:url(#Degradado_sin_nombre_22);}.cls-3{opacity:0.6;}.cls-4{fill:url(#Degradado_sin_nombre_22-2);}.cls-5{fill:url(#Degradado_sin_nombre_22-3);}.cls-6,.cls-7{fill:#fff;}.cls-7{font-size:27.72px;font-family:Kiona-Regular, Kiona;}.cls-8{letter-spacing:-0.01em;}.cls-9{letter-spacing:0em;}.cls-10{fill:#9b9a9a;}.cls-11{fill:#706f6e;}</style><linearGradient id="Degradado_sin_nombre_22" x1="278.02" y1="180.8" x2="465.59" y2="180.8" gradientUnits="userSpaceOnUse"><stop offset="0" stop-color="#149bd7"/><stop offset="0.11" stop-color="#2189ca"/><stop offset="0.39" stop-color="#3e5eaa"/><stop offset="0.64" stop-color="#533f93"/><stop offset="0.85" stop-color="#602c85"/><stop offset="1" stop-color="#652580"/></linearGradient><linearGradient id="Degradado_sin_nombre_22-2" x1="259.92" y1="180.8" x2="447.5" y2="180.8" xlink:href="#Degradado_sin_nombre_22"/><linearGradient id="Degradado_sin_nombre_22-3" x1="238.96" y1="180.8" x2="426.54" y2="180.8" xlink:href="#Degradado_sin_nombre_22"/></defs><title>Tweek</title><g class="cls-1"><path class="cls-2" d="M278,129.41V73.08h79.86a107.72,107.72,0,1,1,0,215.44H278V203l56.3.13v29.12h23.84a51.24,51.24,0,0,0,51.13-51.14c0-27.86-23-50.83-51.13-50.83Z"/></g><g class="cls-3"><path class="cls-4" d="M259.92,129.41V73.08h79.86a107.72,107.72,0,0,1,0,215.44H259.92V203l56.3.13v29.12h23.84a51.24,51.24,0,0,0,51.13-51.14c0-27.86-23-50.83-51.13-50.83Z"/></g><path class="cls-5" d="M239,129.41V73.08h79.86a107.72,107.72,0,0,1,0,215.44H239V203l56.3.13v29.12h23.84a51.24,51.24,0,0,0,51.13-51.14c0-27.86-23-50.83-51.13-50.83Z"/><path class="cls-6" d="M210.83,129.41V73.08h79.86a107.72,107.72,0,0,1,0,215.44H210.83V203l56.3.13v29.12H291a51.24,51.24,0,0,0,51.13-51.14c0-27.86-23-50.83-51.13-50.83Z"/><text class="cls-7" transform="translate(69.88 57.36)">tw<tspan class="cls-8" x="43.02" y="0">ee</tspan><tspan x="75.84" y="0">k</tspan><tspan class="cls-9" x="93.83" y="0">d</tspan><tspan x="111.94" y="0">ev</tspan></text><rect class="cls-6" x="140.26" y="73.08" width="56.41" height="56.41"/><rect class="cls-10" x="69.88" y="73.08" width="56.41" height="56.41"/><rect class="cls-10" x="140.26" y="152.59" width="56.41" height="56.41"/><rect class="cls-11" x="140.26" y="232.11" width="56.41" height="56.41"/></svg>